<svg width="9" height="15" viewBox="0 0 9 15" fill="none" xmlns="http://www.w3.org/2000/svg">
<path d="M8.17942 7.15751C8.1802 7.02302 8.15442 6.8897 8.10357 6.7652C8.05271 6.64069 7.97778 6.52745 7.88307 6.43196L1.75164 0.300534C1.55921 0.108105 1.29822 -5.67471e-08 1.02609 -4.48517e-08C0.753951 -3.29563e-08 0.492962 0.108105 0.300534 0.300534C0.108105 0.492962 3.29563e-08 0.753951 4.48516e-08 1.02609C5.6747e-08 1.29822 0.108105 1.55921 0.300534 1.75164L5.71663 7.15751L0.310754 12.5634C0.143339 12.7589 0.0558569 13.0103 0.065791 13.2675C0.0757251 13.5247 0.182343 13.7687 0.364339 13.9507C0.546335 14.1327 0.790303 14.2393 1.04749 14.2492C1.30468 14.2592 1.55615 14.1717 1.75164 14.0043L7.88307 7.87285C8.07186 7.68251 8.17829 7.4256 8.17942 7.15751Z" fill="#464646"/>
</svg>
